<svg width="1376" height="1080" viewBox="0 0 1376 1080" fill="none" xmlns="http://www.w3.org/2000/svg">
<rect x="-48.5" y="-26.5" width="63" height="63" stroke="#363636" stroke-dasharray="2 2"/>
<rect x="14.5" y="-26.5" width="63" height="63" stroke="#363636" stroke-dasharray="2 2"/>
<rect x="77.5" y="-26.5" width="63" height="63" fill="#92A7B1" fill-opacity="0.09" stroke="#363636" stroke-dasharray="2 2"/>
<rect x="140.5" y="-26.5" width="63" height="63" stroke="#363636" stroke-dasharray="2 2"/>
<rect x="-48.5" y="36.5" width="63" height="63" stroke="#363636" stroke-dasharray="2 2"/>
<rect x="14.5" y="36.5" width="63" height="63" stroke="#363636" stroke-dasharray="2 2"/>
<rect x="-48.5" y="99.5" width="63" height="63" stroke="#363636" stroke-dasharray="2 2"/>
<rect x="14.5" y="99.5" width="63" height="63" stroke="#363636" stroke-dasharray="2 2"/>
<rect x="77.5" y="36.5" width="63" height="63" stroke="#363636" stroke-dasharray="2 2"/>
<rect x="140.5" y="36.5" width="63" height="63" stroke="#363636" stroke-dasharray="2 2"/>
<rect x="77.5" y="99.5" width="63" height="63" stroke="#363636" stroke-dasharray="2 2"/>
<rect x="140.5" y="99.5" width="63" height="63" stroke="#363636" stroke-dasharray="2 2"/>
<line x1="77.5" y1="20" x2="77.5" y2="52" stroke="#4C4C4C"/>
<line x1="61" y1="36.5" x2="93" y2="36.5" stroke="#4C4C4C"/>
<rect x="203.5" y="-26.5" width="63" height="63" stroke="#363636" stroke-dasharray="2 2"/>
<rect x="266.5" y="-26.5" width="63" height="63" stroke="#363636" stroke-dasharray="2 2"/>
<rect x="329.5" y="-26.5" width="63" height="63" stroke="#363636" stroke-dasharray="2 2"/>
<rect x="392.5" y="-26.5" width="63" height="63" stroke="#363636" stroke-dasharray="2 2"/>
<rect x="203.5" y="36.5" width="63" height="63" stroke="#363636" stroke-dasharray="2 2"/>
<rect x="266.5" y="36.5" width="63" height="63" stroke="#363636" stroke-dasharray="2 2"/>
<rect x="203.5" y="99.5" width="63" height="63" stroke="#363636" stroke-dasharray="2 2"/>
<rect x="266.5" y="99.5" width="63" height="63" fill="#92A7B1" fill-opacity="0.09" stroke="#363636" stroke-dasharray="2 2"/>
<rect x="329.5" y="36.5" width="63" height="63" stroke="#363636" stroke-dasharray="2 2"/>
<rect x="392.5" y="36.5" width="63" height="63" stroke="#363636" stroke-dasharray="2 2"/>
<rect x="329.5" y="99.5" width="63" height="63" fill="#92A7B1" fill-opacity="0.09" stroke="#363636" stroke-dasharray="2 2"/>
<rect x="392.5" y="99.5" width="63" height="63" stroke="#363636" stroke-dasharray="2 2"/>
<line x1="329.5" y1="20" x2="329.5" y2="52" stroke="#4C4C4C"/>
<line x1="313" y1="36.5" x2="345" y2="36.5" stroke="#4C4C4C"/>
<rect x="-48.5" y="162.5" width="63" height="63" stroke="#363636" stroke-dasharray="2 2"/>
<rect x="14.5" y="162.5" width="63" height="63" stroke="#363636" stroke-dasharray="2 2"/>
<rect x="-48.5" y="225.5" width="63" height="63" stroke="#363636" stroke-dasharray="2 2"/>
<rect x="14.5" y="225.5" width="63" height="63" stroke="#363636" stroke-dasharray="2 2"/>
<rect x="77.5" y="162.5" width="63" height="63" stroke="#363636" stroke-dasharray="2 2"/>
<rect x="140.5" y="162.5" width="63" height="63" stroke="#363636" stroke-dasharray="2 2"/>
<rect x="77.5" y="225.5" width="63" height="63" stroke="#363636" stroke-dasharray="2 2"/>
<rect x="140.5" y="225.5" width="63" height="63" stroke="#363636" stroke-dasharray="2 2"/>
<rect x="-48.5" y="288.5" width="63" height="63" stroke="#363636" stroke-dasharray="2 2"/>
<rect x="14.5" y="288.5" width="63" height="63" stroke="#363636" stroke-dasharray="2 2"/>
<rect x="-48.5" y="351.5" width="63" height="63" stroke="#363636" stroke-dasharray="2 2"/>
<rect x="14.5" y="351.5" width="63" height="63" fill="#92A7B1" fill-opacity="0.09" stroke="#363636" stroke-dasharray="2 2"/>
<rect x="77.5" y="288.5" width="63" height="63" fill="#92A7B1" fill-opacity="0.09" stroke="#363636" stroke-dasharray="2 2"/>
<rect x="140.5" y="288.5" width="63" height="63" stroke="#363636" stroke-dasharray="2 2"/>
<rect x="77.5" y="351.5" width="63" height="63" stroke="#363636" stroke-dasharray="2 2"/>
<rect x="140.5" y="351.5" width="63" height="63" fill="#92A7B1" fill-opacity="0.09" stroke="#363636" stroke-dasharray="2 2"/>
<line x1="77.5" y1="272" x2="77.5" y2="304" stroke="#4C4C4C"/>
<line x1="61" y1="288.5" x2="93" y2="288.5" stroke="#4C4C4C"/>
<rect x="203.5" y="162.5" width="63" height="63" stroke="#363636" stroke-dasharray="2 2"/>
<rect x="266.5" y="162.5" width="63" height="63" stroke="#363636" stroke-dasharray="2 2"/>
<rect x="203.5" y="225.5" width="63" height="63" stroke="#363636" stroke-dasharray="2 2"/>
<rect x="266.5" y="225.5" width="63" height="63" stroke="#363636" stroke-dasharray="2 2"/>
<rect x="329.5" y="162.5" width="63" height="63" fill="#92A7B1" fill-opacity="0.09" stroke="#363636" stroke-dasharray="2 2"/>
<rect x="392.5" y="162.5" width="63" height="63" stroke="#363636" stroke-dasharray="2 2"/>
<rect x="329.5" y="225.5" width="63" height="63" stroke="#363636" stroke-dasharray="2 2"/>
<rect x="392.5" y="225.5" width="63" height="63" stroke="#363636" stroke-dasharray="2 2"/>
<rect x="203.5" y="288.5" width="63" height="63" stroke="#363636" stroke-dasharray="2 2"/>
<rect x="266.5" y="288.5" width="63" height="63" stroke="#363636" stroke-dasharray="2 2"/>
<rect x="203.5" y="351.5" width="63" height="63" stroke="#363636" stroke-dasharray="2 2"/>
<rect x="266.5" y="351.5" width="63" height="63" stroke="#363636" stroke-dasharray="2 2"/>
<rect x="329.5" y="288.5" width="63" height="63" stroke="#363636" stroke-dasharray="2 2"/>
<rect x="392.5" y="288.5" width="63" height="63" stroke="#363636" stroke-dasharray="2 2"/>
<rect x="329.5" y="351.5" width="63" height="63" stroke="#363636" stroke-dasharray="2 2"/>
<rect x="392.5" y="351.5" width="63" height="63" stroke="#363636" stroke-dasharray="2 2"/>
<line x1="329.5" y1="272" x2="329.5" y2="304" stroke="#4C4C4C"/>
<line x1="313" y1="288.5" x2="345" y2="288.5" stroke="#4C4C4C"/>
<rect x="-48.5" y="414.5" width="63" height="63" stroke="#363636" stroke-dasharray="2 2"/>
<rect x="14.5" y="414.5" width="63" height="63" stroke="#363636" stroke-dasharray="2 2"/>
<rect x="-48.5" y="477.5" width="63" height="63" stroke="#363636" stroke-dasharray="2 2"/>
<rect x="14.5" y="477.5" width="63" height="63" stroke="#363636" stroke-dasharray="2 2"/>
<rect x="77.5" y="414.5" width="63" height="63" stroke="#363636" stroke-dasharray="2 2"/>
<rect x="140.5" y="414.5" width="63" height="63" stroke="#363636" stroke-dasharray="2 2"/>
<rect x="77.5" y="477.5" width="63" height="63" stroke="#363636" stroke-dasharray="2 2"/>
<rect x="140.5" y="477.5" width="63" height="63" stroke="#363636" stroke-dasharray="2 2"/>
<rect x="-48.5" y="540.5" width="63" height="63" stroke="#363636" stroke-dasharray="2 2"/>
<rect x="14.5" y="540.5" width="63" height="63" stroke="#363636" stroke-dasharray="2 2"/>
<rect x="-48.5" y="603.5" width="63" height="63" stroke="#363636" stroke-dasharray="2 2"/>
<rect x="14.5" y="603.5" width="63" height="63" stroke="#363636" stroke-dasharray="2 2"/>
<rect x="77.5" y="540.5" width="63" height="63" stroke="#363636" stroke-dasharray="2 2"/>
<rect x="140.5" y="540.5" width="63" height="63" stroke="#363636" stroke-dasharray="2 2"/>
<rect x="77.5" y="603.5" width="63" height="63" stroke="#363636" stroke-dasharray="2 2"/>
<rect x="140.5" y="603.5" width="63" height="63" stroke="#363636" stroke-dasharray="2 2"/>
<line x1="77.5" y1="524" x2="77.5" y2="556" stroke="#4C4C4C"/>
<line x1="61" y1="540.5" x2="93" y2="540.5" stroke="#4C4C4C"/>
<rect x="203.5" y="414.5" width="63" height="63" stroke="#363636" stroke-dasharray="2 2"/>
<rect x="266.5" y="414.5" width="63" height="63" stroke="#363636" stroke-dasharray="2 2"/>
<rect x="203.5" y="477.5" width="63" height="63" stroke="#363636" stroke-dasharray="2 2"/>
<rect x="266.5" y="477.5" width="63" height="63" stroke="#363636" stroke-dasharray="2 2"/>
<rect x="329.5" y="414.5" width="63" height="63" stroke="#363636" stroke-dasharray="2 2"/>
<rect x="392.5" y="414.5" width="63" height="63" stroke="#363636" stroke-dasharray="2 2"/>
<rect x="329.5" y="477.5" width="63" height="63" fill="#92A7B1" fill-opacity="0.09" stroke="#363636" stroke-dasharray="2 2"/>
<rect x="392.5" y="477.5" width="63" height="63" stroke="#363636" stroke-dasharray="2 2"/>
<rect x="203.5" y="540.5" width="63" height="63" stroke="#363636" stroke-dasharray="2 2"/>
<rect x="266.5" y="540.5" width="63" height="63" stroke="#363636" stroke-dasharray="2 2"/>
<rect x="203.5" y="603.5" width="63" height="63" stroke="#363636" stroke-dasharray="2 2"/>
<rect x="266.5" y="603.5" width="63" height="63" stroke="#363636" stroke-dasharray="2 2"/>
<rect x="329.5" y="540.5" width="63" height="63" stroke="#363636" stroke-dasharray="2 2"/>
<rect x="392.5" y="540.5" width="63" height="63" stroke="#363636" stroke-dasharray="2 2"/>
<rect x="329.5" y="603.5" width="63" height="63" stroke="#363636" stroke-dasharray="2 2"/>
<rect x="392.5" y="603.5" width="63" height="63" stroke="#363636" stroke-dasharray="2 2"/>
<line x1="329.5" y1="524" x2="329.5" y2="556" stroke="#4C4C4C"/>
<line x1="313" y1="540.5" x2="345" y2="540.5" stroke="#4C4C4C"/>
<rect x="-48.5" y="666.5" width="63" height="63" stroke="#363636" stroke-dasharray="2 2"/>
<rect x="14.5" y="666.5" width="63" height="63" stroke="#363636" stroke-dasharray="2 2"/>
<rect x="-48.5" y="729.5" width="63" height="63" stroke="#363636" stroke-dasharray="2 2"/>
<rect x="14.5" y="729.5" width="63" height="63" stroke="#363636" stroke-dasharray="2 2"/>
<rect x="77.5" y="666.5" width="63" height="63" stroke="#363636" stroke-dasharray="2 2"/>
<rect x="140.5" y="666.5" width="63" height="63" stroke="#363636" stroke-dasharray="2 2"/>
<rect x="77.5" y="729.5" width="63" height="63" stroke="#363636" stroke-dasharray="2 2"/>
<rect x="140.5" y="729.5" width="63" height="63" stroke="#363636" stroke-dasharray="2 2"/>
<rect x="-48.5" y="792.5" width="63" height="63" stroke="#363636" stroke-dasharray="2 2"/>
<rect x="14.5" y="792.5" width="63" height="63" stroke="#363636" stroke-dasharray="2 2"/>
<rect x="-48.5" y="855.5" width="63" height="63" stroke="#363636" stroke-dasharray="2 2"/>
<rect x="14.5" y="855.5" width="63" height="63" stroke="#363636" stroke-dasharray="2 2"/>
<rect x="77.5" y="792.5" width="63" height="63" stroke="#363636" stroke-dasharray="2 2"/>
<rect x="140.5" y="792.5" width="63" height="63" stroke="#363636" stroke-dasharray="2 2"/>
<rect x="77.5" y="855.5" width="63" height="63" stroke="#363636" stroke-dasharray="2 2"/>
<rect x="140.5" y="855.5" width="63" height="63" stroke="#363636" stroke-dasharray="2 2"/>
<line x1="77.5" y1="776" x2="77.5" y2="808" stroke="#4C4C4C"/>
<line x1="61" y1="792.5" x2="93" y2="792.5" stroke="#4C4C4C"/>
<rect x="203.5" y="666.5" width="63" height="63" fill="#92A7B1" fill-opacity="0.09" stroke="#363636" stroke-dasharray="2 2"/>
<rect x="266.5" y="666.5" width="63" height="63" stroke="#363636" stroke-dasharray="2 2"/>
<rect x="203.5" y="729.5" width="63" height="63" fill="#92A7B1" fill-opacity="0.09" stroke="#363636" stroke-dasharray="2 2"/>
<rect x="266.5" y="729.5" width="63" height="63" stroke="#363636" stroke-dasharray="2 2"/>
<rect x="329.5" y="666.5" width="63" height="63" stroke="#363636" stroke-dasharray="2 2"/>
<rect x="392.5" y="666.5" width="63" height="63" stroke="#363636" stroke-dasharray="2 2"/>
<rect x="329.5" y="729.5" width="63" height="63" stroke="#363636" stroke-dasharray="2 2"/>
<rect x="392.5" y="729.5" width="63" height="63" stroke="#363636" stroke-dasharray="2 2"/>
<rect x="203.5" y="792.5" width="63" height="63" fill="#92A7B1" fill-opacity="0.09" stroke="#363636" stroke-dasharray="2 2"/>
<rect x="266.5" y="792.5" width="63" height="63" stroke="#363636" stroke-dasharray="2 2"/>
<rect x="203.5" y="855.5" width="63" height="63" stroke="#363636" stroke-dasharray="2 2"/>
<rect x="266.5" y="855.5" width="63" height="63" stroke="#363636" stroke-dasharray="2 2"/>
<rect x="329.5" y="792.5" width="63" height="63" stroke="#363636" stroke-dasharray="2 2"/>
<rect x="392.5" y="792.5" width="63" height="63" fill="#92A7B1" fill-opacity="0.09" stroke="#363636" stroke-dasharray="2 2"/>
<rect x="329.5" y="855.5" width="63" height="63" stroke="#363636" stroke-dasharray="2 2"/>
<rect x="392.5" y="855.5" width="63" height="63" stroke="#363636" stroke-dasharray="2 2"/>
<line x1="329.5" y1="776" x2="329.5" y2="808" stroke="#4C4C4C"/>
<line x1="313" y1="792.5" x2="345" y2="792.5" stroke="#4C4C4C"/>
<rect x="455.5" y="-26.5" width="63" height="63" stroke="#363636" stroke-dasharray="2 2"/>
<rect x="518.5" y="-26.5" width="63" height="63" stroke="#363636" stroke-dasharray="2 2"/>
<rect x="581.5" y="-26.5" width="63" height="63" stroke="#363636" stroke-dasharray="2 2"/>
<rect x="644.5" y="-26.5" width="63" height="63" stroke="#363636" stroke-dasharray="2 2"/>
<rect x="455.5" y="36.5" width="63" height="63" stroke="#363636" stroke-dasharray="2 2"/>
<rect x="518.5" y="36.5" width="63" height="63" stroke="#363636" stroke-dasharray="2 2"/>
<rect x="455.5" y="99.5" width="63" height="63" stroke="#363636" stroke-dasharray="2 2"/>
<rect x="518.5" y="99.5" width="63" height="63" stroke="#363636" stroke-dasharray="2 2"/>
<rect x="581.5" y="36.5" width="63" height="63" stroke="#363636" stroke-dasharray="2 2"/>
<rect x="644.5" y="36.5" width="63" height="63" fill="#92A7B1" fill-opacity="0.09" stroke="#363636" stroke-dasharray="2 2"/>
<rect x="581.5" y="99.5" width="63" height="63" stroke="#363636" stroke-dasharray="2 2"/>
<rect x="644.5" y="99.5" width="63" height="63" stroke="#363636" stroke-dasharray="2 2"/>
<line x1="581.5" y1="20" x2="581.5" y2="52" stroke="#4C4C4C"/>
<line x1="565" y1="36.5" x2="597" y2="36.5" stroke="#4C4C4C"/>
<rect x="707.5" y="-26.5" width="63" height="63" stroke="#363636" stroke-dasharray="2 2"/>
<rect x="770.5" y="-26.5" width="63" height="63" stroke="#363636" stroke-dasharray="2 2"/>
<rect x="833.5" y="-26.5" width="63" height="63" stroke="#363636" stroke-dasharray="2 2"/>
<rect x="896.5" y="-26.5" width="63" height="63" stroke="#363636" stroke-dasharray="2 2"/>
<rect x="707.5" y="36.5" width="63" height="63" stroke="#363636" stroke-dasharray="2 2"/>
<rect x="770.5" y="36.5" width="63" height="63" stroke="#363636" stroke-dasharray="2 2"/>
<rect x="707.5" y="99.5" width="63" height="63" fill="#92A7B1" fill-opacity="0.09" stroke="#363636" stroke-dasharray="2 2"/>
<rect x="770.5" y="99.5" width="63" height="63" stroke="#363636" stroke-dasharray="2 2"/>
<rect x="833.5" y="36.5" width="63" height="63" stroke="#363636" stroke-dasharray="2 2"/>
<rect x="896.5" y="36.5" width="63" height="63" fill="#92A7B1" fill-opacity="0.09" stroke="#363636" stroke-dasharray="2 2"/>
<rect x="833.5" y="99.5" width="63" height="63" stroke="#363636" stroke-dasharray="2 2"/>
<rect x="896.5" y="99.5" width="63" height="63" stroke="#363636" stroke-dasharray="2 2"/>
<line x1="833.5" y1="20" x2="833.5" y2="52" stroke="#4C4C4C"/>
<line x1="817" y1="36.5" x2="849" y2="36.5" stroke="#4C4C4C"/>
<rect x="455.5" y="162.5" width="63" height="63" stroke="#363636" stroke-dasharray="2 2"/>
<rect x="518.5" y="162.5" width="63" height="63" fill="#92A7B1" fill-opacity="0.09" stroke="#363636" stroke-dasharray="2 2"/>
<rect x="455.5" y="225.5" width="63" height="63" stroke="#363636" stroke-dasharray="2 2"/>
<rect x="518.5" y="225.5" width="63" height="63" stroke="#363636" stroke-dasharray="2 2"/>
<rect x="581.5" y="162.5" width="63" height="63" stroke="#363636" stroke-dasharray="2 2"/>
<rect x="644.5" y="162.5" width="63" height="63" stroke="#363636" stroke-dasharray="2 2"/>
<rect x="581.5" y="225.5" width="63" height="63" stroke="#363636" stroke-dasharray="2 2"/>
<rect x="644.5" y="225.5" width="63" height="63" stroke="#363636" stroke-dasharray="2 2"/>
<rect x="455.5" y="288.5" width="63" height="63" stroke="#363636" stroke-dasharray="2 2"/>
<rect x="518.5" y="288.5" width="63" height="63" stroke="#363636" stroke-dasharray="2 2"/>
<rect x="455.5" y="351.5" width="63" height="63" stroke="#363636" stroke-dasharray="2 2"/>
<rect x="518.5" y="351.5" width="63" height="63" stroke="#363636" stroke-dasharray="2 2"/>
<rect x="581.5" y="288.5" width="63" height="63" stroke="#363636" stroke-dasharray="2 2"/>
<rect x="644.5" y="288.5" width="63" height="63" stroke="#363636" stroke-dasharray="2 2"/>
<rect x="581.5" y="351.5" width="63" height="63" stroke="#363636" stroke-dasharray="2 2"/>
<rect x="644.5" y="351.5" width="63" height="63" stroke="#363636" stroke-dasharray="2 2"/>
<line x1="581.5" y1="272" x2="581.5" y2="304" stroke="#4C4C4C"/>
<line x1="565" y1="288.5" x2="597" y2="288.5" stroke="#4C4C4C"/>
<rect x="707.5" y="162.5" width="63" height="63" stroke="#363636" stroke-dasharray="2 2"/>
<rect x="770.5" y="162.5" width="63" height="63" stroke="#363636" stroke-dasharray="2 2"/>
<rect x="707.5" y="225.5" width="63" height="63" stroke="#363636" stroke-dasharray="2 2"/>
<rect x="770.5" y="225.5" width="63" height="63" stroke="#363636" stroke-dasharray="2 2"/>
<rect x="833.5" y="162.5" width="63" height="63" stroke="#363636" stroke-dasharray="2 2"/>
<rect x="896.5" y="162.5" width="63" height="63" stroke="#363636" stroke-dasharray="2 2"/>
<rect x="833.5" y="225.5" width="63" height="63" stroke="#363636" stroke-dasharray="2 2"/>
<rect x="896.5" y="225.5" width="63" height="63" stroke="#363636" stroke-dasharray="2 2"/>
<rect x="707.5" y="288.5" width="63" height="63" stroke="#363636" stroke-dasharray="2 2"/>
<rect x="770.5" y="288.5" width="63" height="63" stroke="#363636" stroke-dasharray="2 2"/>
<rect x="707.5" y="351.5" width="63" height="63" stroke="#363636" stroke-dasharray="2 2"/>
<rect x="770.5" y="351.5" width="63" height="63" stroke="#363636" stroke-dasharray="2 2"/>
<rect x="833.5" y="288.5" width="63" height="63" stroke="#363636" stroke-dasharray="2 2"/>
<rect x="896.5" y="288.5" width="63" height="63" stroke="#363636" stroke-dasharray="2 2"/>
<rect x="833.5" y="351.5" width="63" height="63" stroke="#363636" stroke-dasharray="2 2"/>
<rect x="896.5" y="351.5" width="63" height="63" stroke="#363636" stroke-dasharray="2 2"/>
<line x1="833.5" y1="272" x2="833.5" y2="304" stroke="#4C4C4C"/>
<line x1="817" y1="288.5" x2="849" y2="288.5" stroke="#4C4C4C"/>
<rect x="455.5" y="414.5" width="63" height="63" stroke="#363636" stroke-dasharray="2 2"/>
<rect x="518.5" y="414.5" width="63" height="63" stroke="#363636" stroke-dasharray="2 2"/>
<rect x="455.5" y="477.5" width="63" height="63" stroke="#363636" stroke-dasharray="2 2"/>
<rect x="518.5" y="477.5" width="63" height="63" stroke="#363636" stroke-dasharray="2 2"/>
<rect x="581.5" y="414.5" width="63" height="63" stroke="#363636" stroke-dasharray="2 2"/>
<rect x="644.5" y="414.5" width="63" height="63" stroke="#363636" stroke-dasharray="2 2"/>
<rect x="581.5" y="477.5" width="63" height="63" stroke="#363636" stroke-dasharray="2 2"/>
<rect x="644.5" y="477.5" width="63" height="63" stroke="#363636" stroke-dasharray="2 2"/>
<rect x="455.5" y="540.5" width="63" height="63" stroke="#363636" stroke-dasharray="2 2"/>
<rect x="518.5" y="540.5" width="63" height="63" stroke="#363636" stroke-dasharray="2 2"/>
<rect x="455.5" y="603.5" width="63" height="63" stroke="#363636" stroke-dasharray="2 2"/>
<rect x="518.5" y="603.5" width="63" height="63" stroke="#363636" stroke-dasharray="2 2"/>
<rect x="581.5" y="540.5" width="63" height="63" stroke="#363636" stroke-dasharray="2 2"/>
<rect x="644.5" y="540.5" width="63" height="63" stroke="#363636" stroke-dasharray="2 2"/>
<rect x="581.5" y="603.5" width="63" height="63" stroke="#363636" stroke-dasharray="2 2"/>
<rect x="644.5" y="603.5" width="63" height="63" stroke="#363636" stroke-dasharray="2 2"/>
<line x1="581.5" y1="524" x2="581.5" y2="556" stroke="#4C4C4C"/>
<line x1="565" y1="540.5" x2="597" y2="540.5" stroke="#4C4C4C"/>
<rect x="707.5" y="414.5" width="63" height="63" stroke="#363636" stroke-dasharray="2 2"/>
<rect x="770.5" y="414.5" width="63" height="63" stroke="#363636" stroke-dasharray="2 2"/>
<rect x="707.5" y="477.5" width="63" height="63" stroke="#363636" stroke-dasharray="2 2"/>
<rect x="770.5" y="477.5" width="63" height="63" stroke="#363636" stroke-dasharray="2 2"/>
<rect x="833.5" y="414.5" width="63" height="63" stroke="#363636" stroke-dasharray="2 2"/>
<rect x="896.5" y="414.5" width="63" height="63" stroke="#363636" stroke-dasharray="2 2"/>
<rect x="833.5" y="477.5" width="63" height="63" stroke="#363636" stroke-dasharray="2 2"/>
<rect x="896.5" y="477.5" width="63" height="63" stroke="#363636" stroke-dasharray="2 2"/>
<rect x="707.5" y="540.5" width="63" height="63" stroke="#363636" stroke-dasharray="2 2"/>
<rect x="770.5" y="540.5" width="63" height="63" stroke="#363636" stroke-dasharray="2 2"/>
<rect x="707.5" y="603.5" width="63" height="63" fill="#92A7B1" fill-opacity="0.09" stroke="#363636" stroke-dasharray="2 2"/>
<rect x="770.5" y="603.5" width="63" height="63" stroke="#363636" stroke-dasharray="2 2"/>
<rect x="833.5" y="540.5" width="63" height="63" stroke="#363636" stroke-dasharray="2 2"/>
<rect x="896.5" y="540.5" width="63" height="63" stroke="#363636" stroke-dasharray="2 2"/>
<rect x="833.5" y="603.5" width="63" height="63" stroke="#363636" stroke-dasharray="2 2"/>
<rect x="896.5" y="603.5" width="63" height="63" stroke="#363636" stroke-dasharray="2 2"/>
<line x1="833.5" y1="524" x2="833.5" y2="556" stroke="#4C4C4C"/>
<line x1="817" y1="540.5" x2="849" y2="540.5" stroke="#4C4C4C"/>
<rect x="455.5" y="666.5" width="63" height="63" stroke="#363636" stroke-dasharray="2 2"/>
<rect x="518.5" y="666.5" width="63" height="63" stroke="#363636" stroke-dasharray="2 2"/>
<rect x="455.5" y="729.5" width="63" height="63" stroke="#363636" stroke-dasharray="2 2"/>
<rect x="518.5" y="729.5" width="63" height="63" stroke="#363636" stroke-dasharray="2 2"/>
<rect x="581.5" y="666.5" width="63" height="63" stroke="#363636" stroke-dasharray="2 2"/>
<rect x="644.5" y="666.5" width="63" height="63" stroke="#363636" stroke-dasharray="2 2"/>
<rect x="581.5" y="729.5" width="63" height="63" stroke="#363636" stroke-dasharray="2 2"/>
<rect x="644.5" y="729.5" width="63" height="63" fill="#92A7B1" fill-opacity="0.09" stroke="#363636" stroke-dasharray="2 2"/>
<rect x="455.5" y="792.5" width="63" height="63" stroke="#363636" stroke-dasharray="2 2"/>
<rect x="518.5" y="792.5" width="63" height="63" stroke="#363636" stroke-dasharray="2 2"/>
<rect x="455.5" y="855.5" width="63" height="63" stroke="#363636" stroke-dasharray="2 2"/>
<rect x="518.5" y="855.5" width="63" height="63" stroke="#363636" stroke-dasharray="2 2"/>
<rect x="581.5" y="792.5" width="63" height="63" stroke="#363636" stroke-dasharray="2 2"/>
<rect x="644.5" y="792.5" width="63" height="63" stroke="#363636" stroke-dasharray="2 2"/>
<rect x="581.5" y="855.5" width="63" height="63" stroke="#363636" stroke-dasharray="2 2"/>
<rect x="644.5" y="855.5" width="63" height="63" stroke="#363636" stroke-dasharray="2 2"/>
<line x1="581.5" y1="776" x2="581.5" y2="808" stroke="#4C4C4C"/>
<line x1="565" y1="792.5" x2="597" y2="792.5" stroke="#4C4C4C"/>
<rect x="707.5" y="666.5" width="63" height="63" fill="#92A7B1" fill-opacity="0.09" stroke="#363636" stroke-dasharray="2 2"/>
<rect x="770.5" y="666.5" width="63" height="63" stroke="#363636" stroke-dasharray="2 2"/>
<rect x="707.5" y="729.5" width="63" height="63" stroke="#363636" stroke-dasharray="2 2"/>
<rect x="770.5" y="729.5" width="63" height="63" stroke="#363636" stroke-dasharray="2 2"/>
<rect x="833.5" y="666.5" width="63" height="63" stroke="#363636" stroke-dasharray="2 2"/>
<rect x="896.5" y="666.5" width="63" height="63" stroke="#363636" stroke-dasharray="2 2"/>
<rect x="833.5" y="729.5" width="63" height="63" stroke="#363636" stroke-dasharray="2 2"/>
<rect x="896.5" y="729.5" width="63" height="63" stroke="#363636" stroke-dasharray="2 2"/>
<rect x="707.5" y="792.5" width="63" height="63" stroke="#363636" stroke-dasharray="2 2"/>
<rect x="770.5" y="792.5" width="63" height="63" stroke="#363636" stroke-dasharray="2 2"/>
<rect x="707.5" y="855.5" width="63" height="63" stroke="#363636" stroke-dasharray="2 2"/>
<rect x="770.5" y="855.5" width="63" height="63" stroke="#363636" stroke-dasharray="2 2"/>
<rect x="833.5" y="792.5" width="63" height="63" stroke="#363636" stroke-dasharray="2 2"/>
<rect x="896.5" y="792.5" width="63" height="63" stroke="#363636" stroke-dasharray="2 2"/>
<rect x="833.5" y="855.5" width="63" height="63" stroke="#363636" stroke-dasharray="2 2"/>
<rect x="896.5" y="855.5" width="63" height="63" stroke="#363636" stroke-dasharray="2 2"/>
<line x1="833.5" y1="776" x2="833.5" y2="808" stroke="#4C4C4C"/>
<line x1="817" y1="792.5" x2="849" y2="792.5" stroke="#4C4C4C"/>
<rect x="959.5" y="-26.5" width="63" height="63" fill="#92A7B1" fill-opacity="0.09" stroke="#363636" stroke-dasharray="2 2"/>
<rect x="1022.5" y="-26.5" width="63" height="63" stroke="#363636" stroke-dasharray="2 2"/>
<rect x="1085.5" y="-26.5" width="63" height="63" stroke="#363636" stroke-dasharray="2 2"/>
<rect x="1148.5" y="-26.5" width="63" height="63" stroke="#363636" stroke-dasharray="2 2"/>
<rect x="959.5" y="36.5" width="63" height="63" stroke="#363636" stroke-dasharray="2 2"/>
<rect x="1022.5" y="36.5" width="63" height="63" stroke="#363636" stroke-dasharray="2 2"/>
<rect x="959.5" y="99.5" width="63" height="63" stroke="#363636" stroke-dasharray="2 2"/>
<rect x="1022.5" y="99.5" width="63" height="63" stroke="#363636" stroke-dasharray="2 2"/>
<rect x="1085.5" y="36.5" width="63" height="63" stroke="#363636" stroke-dasharray="2 2"/>
<rect x="1148.5" y="36.5" width="63" height="63" stroke="#363636" stroke-dasharray="2 2"/>
<rect x="1085.5" y="99.5" width="63" height="63" stroke="#363636" stroke-dasharray="2 2"/>
<rect x="1148.5" y="99.5" width="63" height="63" fill="#92A7B1" fill-opacity="0.09" stroke="#363636" stroke-dasharray="2 2"/>
<line x1="1085.5" y1="20" x2="1085.5" y2="52" stroke="#4C4C4C"/>
<line x1="1069" y1="36.5" x2="1101" y2="36.5" stroke="#4C4C4C"/>
<rect x="1211.5" y="-26.5" width="63" height="63" stroke="#363636" stroke-dasharray="2 2"/>
<rect x="1274.5" y="-26.5" width="63" height="63" stroke="#363636" stroke-dasharray="2 2"/>
<rect x="1337.5" y="-26.5" width="63" height="63" stroke="#363636" stroke-dasharray="2 2"/>
<rect x="1211.5" y="36.5" width="63" height="63" stroke="#363636" stroke-dasharray="2 2"/>
<rect x="1274.5" y="36.5" width="63" height="63" stroke="#363636" stroke-dasharray="2 2"/>
<rect x="1211.5" y="99.5" width="63" height="63" fill="#92A7B1" fill-opacity="0.09" stroke="#363636" stroke-dasharray="2 2"/>
<rect x="1274.5" y="99.5" width="63" height="63" stroke="#363636" stroke-dasharray="2 2"/>
<rect x="1337.5" y="36.5" width="63" height="63" stroke="#363636" stroke-dasharray="2 2"/>
<rect x="1337.5" y="99.5" width="63" height="63" stroke="#363636" stroke-dasharray="2 2"/>
<line x1="1337.5" y1="20" x2="1337.5" y2="52" stroke="#4C4C4C"/>
<line x1="1321" y1="36.5" x2="1353" y2="36.5" stroke="#4C4C4C"/>
<rect x="959.5" y="162.5" width="63" height="63" stroke="#363636" stroke-dasharray="2 2"/>
<rect x="1022.5" y="162.5" width="63" height="63" stroke="#363636" stroke-dasharray="2 2"/>
<rect x="959.5" y="225.5" width="63" height="63" stroke="#363636" stroke-dasharray="2 2"/>
<rect x="1022.5" y="225.5" width="63" height="63" stroke="#363636" stroke-dasharray="2 2"/>
<rect x="1085.5" y="162.5" width="63" height="63" stroke="#363636" stroke-dasharray="2 2"/>
<rect x="1148.5" y="162.5" width="63" height="63" stroke="#363636" stroke-dasharray="2 2"/>
<rect x="1085.5" y="225.5" width="63" height="63" stroke="#363636" stroke-dasharray="2 2"/>
<rect x="1148.5" y="225.5" width="63" height="63" stroke="#363636" stroke-dasharray="2 2"/>
<rect x="959.5" y="288.5" width="63" height="63" stroke="#363636" stroke-dasharray="2 2"/>
<rect x="1022.5" y="288.5" width="63" height="63" stroke="#363636" stroke-dasharray="2 2"/>
<rect x="959.5" y="351.5" width="63" height="63" stroke="#363636" stroke-dasharray="2 2"/>
<rect x="1022.5" y="351.5" width="63" height="63" stroke="#363636" stroke-dasharray="2 2"/>
<rect x="1085.5" y="288.5" width="63" height="63" stroke="#363636" stroke-dasharray="2 2"/>
<rect x="1148.5" y="288.5" width="63" height="63" stroke="#363636" stroke-dasharray="2 2"/>
<rect x="1085.5" y="351.5" width="63" height="63" fill="#92A7B1" fill-opacity="0.09" stroke="#363636" stroke-dasharray="2 2"/>
<rect x="1148.5" y="351.5" width="63" height="63" stroke="#363636" stroke-dasharray="2 2"/>
<line x1="1085.5" y1="272" x2="1085.5" y2="304" stroke="#4C4C4C"/>
<line x1="1069" y1="288.5" x2="1101" y2="288.5" stroke="#4C4C4C"/>
<rect x="1211.5" y="162.5" width="63" height="63" stroke="#363636" stroke-dasharray="2 2"/>
<rect x="1274.5" y="162.5" width="63" height="63" stroke="#363636" stroke-dasharray="2 2"/>
<rect x="1211.5" y="225.5" width="63" height="63" stroke="#363636" stroke-dasharray="2 2"/>
<rect x="1274.5" y="225.5" width="63" height="63" stroke="#363636" stroke-dasharray="2 2"/>
<rect x="1337.5" y="162.5" width="63" height="63" stroke="#363636" stroke-dasharray="2 2"/>
<rect x="1337.5" y="225.5" width="63" height="63" stroke="#363636" stroke-dasharray="2 2"/>
<rect x="1211.5" y="288.5" width="63" height="63" stroke="#363636" stroke-dasharray="2 2"/>
<rect x="1274.5" y="288.5" width="63" height="63" stroke="#363636" stroke-dasharray="2 2"/>
<rect x="1211.5" y="351.5" width="63" height="63" stroke="#363636" stroke-dasharray="2 2"/>
<rect x="1274.5" y="351.5" width="63" height="63" stroke="#363636" stroke-dasharray="2 2"/>
<rect x="1337.5" y="288.5" width="63" height="63" stroke="#363636" stroke-dasharray="2 2"/>
<rect x="1337.5" y="351.5" width="63" height="63" fill="#92A7B1" fill-opacity="0.09" stroke="#363636" stroke-dasharray="2 2"/>
<line x1="1337.5" y1="272" x2="1337.5" y2="304" stroke="#4C4C4C"/>
<line x1="1321" y1="288.5" x2="1353" y2="288.5" stroke="#4C4C4C"/>
<rect x="959.5" y="414.5" width="63" height="63" stroke="#363636" stroke-dasharray="2 2"/>
<rect x="1022.5" y="414.5" width="63" height="63" stroke="#363636" stroke-dasharray="2 2"/>
<rect x="959.5" y="477.5" width="63" height="63" stroke="#363636" stroke-dasharray="2 2"/>
<rect x="1022.5" y="477.5" width="63" height="63" fill="#92A7B1" fill-opacity="0.09" stroke="#363636" stroke-dasharray="2 2"/>
<rect x="1085.5" y="414.5" width="63" height="63" stroke="#363636" stroke-dasharray="2 2"/>
<rect x="1148.5" y="414.5" width="63" height="63" stroke="#363636" stroke-dasharray="2 2"/>
<rect x="1085.5" y="477.5" width="63" height="63" stroke="#363636" stroke-dasharray="2 2"/>
<rect x="1148.5" y="477.5" width="63" height="63" stroke="#363636" stroke-dasharray="2 2"/>
<rect x="959.5" y="540.5" width="63" height="63" stroke="#363636" stroke-dasharray="2 2"/>
<rect x="1022.5" y="540.5" width="63" height="63" fill="#92A7B1" fill-opacity="0.09" stroke="#363636" stroke-dasharray="2 2"/>
<rect x="959.5" y="603.5" width="63" height="63" stroke="#363636" stroke-dasharray="2 2"/>
<rect x="1022.5" y="603.5" width="63" height="63" fill="#92A7B1" fill-opacity="0.09" stroke="#363636" stroke-dasharray="2 2"/>
<rect x="1085.5" y="540.5" width="63" height="63" stroke="#363636" stroke-dasharray="2 2"/>
<rect x="1148.5" y="540.5" width="63" height="63" stroke="#363636" stroke-dasharray="2 2"/>
<rect x="1085.5" y="603.5" width="63" height="63" fill="#92A7B1" fill-opacity="0.09" stroke="#363636" stroke-dasharray="2 2"/>
<rect x="1148.5" y="603.5" width="63" height="63" stroke="#363636" stroke-dasharray="2 2"/>
<line x1="1085.5" y1="524" x2="1085.5" y2="556" stroke="#4C4C4C"/>
<line x1="1069" y1="540.5" x2="1101" y2="540.5" stroke="#4C4C4C"/>
<rect x="1211.5" y="414.5" width="63" height="63" stroke="#363636" stroke-dasharray="2 2"/>
<rect x="1274.5" y="414.5" width="63" height="63" stroke="#363636" stroke-dasharray="2 2"/>
<rect x="1211.5" y="477.5" width="63" height="63" stroke="#363636" stroke-dasharray="2 2"/>
<rect x="1274.5" y="477.5" width="63" height="63" stroke="#363636" stroke-dasharray="2 2"/>
<rect x="1337.5" y="414.5" width="63" height="63" fill="#92A7B1" fill-opacity="0.09" stroke="#363636" stroke-dasharray="2 2"/>
<rect x="1337.5" y="477.5" width="63" height="63" stroke="#363636" stroke-dasharray="2 2"/>
<rect x="1211.5" y="540.5" width="63" height="63" stroke="#363636" stroke-dasharray="2 2"/>
<rect x="1274.5" y="540.5" width="63" height="63" stroke="#363636" stroke-dasharray="2 2"/>
<rect x="1211.5" y="603.5" width="63" height="63" stroke="#363636" stroke-dasharray="2 2"/>
<rect x="1274.5" y="603.5" width="63" height="63" stroke="#363636" stroke-dasharray="2 2"/>
<rect x="1337.5" y="540.5" width="63" height="63" stroke="#363636" stroke-dasharray="2 2"/>
<rect x="1337.5" y="603.5" width="63" height="63" stroke="#363636" stroke-dasharray="2 2"/>
<line x1="1337.5" y1="524" x2="1337.5" y2="556" stroke="#4C4C4C"/>
<line x1="1321" y1="540.5" x2="1353" y2="540.5" stroke="#4C4C4C"/>
<rect x="959.5" y="666.5" width="63" height="63" stroke="#363636" stroke-dasharray="2 2"/>
<rect x="1022.5" y="666.5" width="63" height="63" stroke="#363636" stroke-dasharray="2 2"/>
<rect x="959.5" y="729.5" width="63" height="63" stroke="#363636" stroke-dasharray="2 2"/>
<rect x="1022.5" y="729.5" width="63" height="63" stroke="#363636" stroke-dasharray="2 2"/>
<rect x="1085.5" y="666.5" width="63" height="63" stroke="#363636" stroke-dasharray="2 2"/>
<rect x="1148.5" y="666.5" width="63" height="63" stroke="#363636" stroke-dasharray="2 2"/>
<rect x="1085.5" y="729.5" width="63" height="63" stroke="#363636" stroke-dasharray="2 2"/>
<rect x="1148.5" y="729.5" width="63" height="63" stroke="#363636" stroke-dasharray="2 2"/>
<rect x="959.5" y="792.5" width="63" height="63" stroke="#363636" stroke-dasharray="2 2"/>
<rect x="1022.5" y="792.5" width="63" height="63" stroke="#363636" stroke-dasharray="2 2"/>
<rect x="959.5" y="855.5" width="63" height="63" fill="#92A7B1" fill-opacity="0.09" stroke="#363636" stroke-dasharray="2 2"/>
<rect x="1022.5" y="855.5" width="63" height="63" stroke="#363636" stroke-dasharray="2 2"/>
<rect x="1085.5" y="792.5" width="63" height="63" stroke="#363636" stroke-dasharray="2 2"/>
<rect x="1148.5" y="792.5" width="63" height="63" stroke="#363636" stroke-dasharray="2 2"/>
<rect x="1085.5" y="855.5" width="63" height="63" stroke="#363636" stroke-dasharray="2 2"/>
<rect x="1148.5" y="855.5" width="63" height="63" fill="#92A7B1" fill-opacity="0.09"/>
<rect x="1148.5" y="855.5" width="63" height="63" stroke="#363636" stroke-dasharray="2 2"/>
<rect x="1148.5" y="855.5" width="63" height="63" stroke="black" stroke-opacity="0.2" stroke-dasharray="2 2"/>
<line x1="1085.5" y1="776" x2="1085.5" y2="808" stroke="#4C4C4C"/>
<line x1="1069" y1="792.5" x2="1101" y2="792.5" stroke="#4C4C4C"/>
<rect x="1211.5" y="666.5" width="63" height="63" stroke="#363636" stroke-dasharray="2 2"/>
<rect x="1274.5" y="666.5" width="63" height="63" stroke="#363636" stroke-dasharray="2 2"/>
<rect x="1211.5" y="729.5" width="63" height="63" stroke="#363636" stroke-dasharray="2 2"/>
<rect x="1274.5" y="729.5" width="63" height="63" stroke="#363636" stroke-dasharray="2 2"/>
<rect x="1337.5" y="666.5" width="63" height="63" stroke="#363636" stroke-dasharray="2 2"/>
<rect x="1337.5" y="729.5" width="63" height="63" stroke="#363636" stroke-dasharray="2 2"/>
<rect x="1211.5" y="792.5" width="63" height="63" fill="#92A7B1" fill-opacity="0.09"/>
<rect x="1211.5" y="792.5" width="63" height="63" stroke="#363636" stroke-dasharray="2 2"/>
<rect x="1211.5" y="792.5" width="63" height="63" stroke="black" stroke-opacity="0.2" stroke-dasharray="2 2"/>
<rect x="1274.5" y="792.5" width="63" height="63" stroke="#363636" stroke-dasharray="2 2"/>
<rect x="1211.5" y="855.5" width="63" height="63" fill="#92A7B1" fill-opacity="0.09"/>
<rect x="1211.5" y="855.5" width="63" height="63" stroke="#363636" stroke-dasharray="2 2"/>
<rect x="1211.5" y="855.5" width="63" height="63" stroke="black" stroke-opacity="0.2" stroke-dasharray="2 2"/>
<rect x="1274.5" y="855.5" width="63" height="63" stroke="#363636" stroke-dasharray="2 2"/>
<rect x="1337.5" y="792.5" width="63" height="63" stroke="#363636" stroke-dasharray="2 2"/>
<rect x="1337.5" y="855.5" width="63" height="63" stroke="#363636" stroke-dasharray="2 2"/>
<rect x="-48.5" y="1044.5" width="63" height="63" stroke="#363636" stroke-dasharray="2 2"/>
<rect x="14.5" y="1044.5" width="63" height="63" fill="#92A7B1" fill-opacity="0.09" stroke="#363636" stroke-dasharray="2 2"/>
<rect x="329.5" y="1044.5" width="63" height="63" stroke="#363636" stroke-dasharray="2 2"/>
<rect x="392.5" y="1044.5" width="63" height="63" stroke="#363636" stroke-dasharray="2 2"/>
<rect x="203.5" y="1044.5" width="63" height="63" fill="#92A7B1" fill-opacity="0.09" stroke="#363636" stroke-dasharray="2 2"/>
<rect x="266.5" y="1044.5" width="63" height="63" stroke="#363636" stroke-dasharray="2 2"/>
<rect x="77.5" y="1044.5" width="63" height="63" stroke="#363636" stroke-dasharray="2 2"/>
<rect x="140.5" y="1044.5" width="63" height="63" fill="#92A7B1" fill-opacity="0.09" stroke="#363636" stroke-dasharray="2 2"/>
<rect x="-48.5" y="918.5" width="63" height="63" stroke="#363636" stroke-dasharray="2 2"/>
<rect x="14.5" y="918.5" width="63" height="63" stroke="#363636" stroke-dasharray="2 2"/>
<rect x="-48.5" y="981.5" width="63" height="63" stroke="#363636" stroke-dasharray="2 2"/>
<rect x="14.5" y="981.5" width="63" height="63" stroke="#363636" stroke-dasharray="2 2"/>
<rect x="329.5" y="918.5" width="63" height="63" stroke="#363636" stroke-dasharray="2 2"/>
<rect x="392.5" y="918.5" width="63" height="63" stroke="#363636" stroke-dasharray="2 2"/>
<rect x="329.5" y="981.5" width="63" height="63" fill="#92A7B1" fill-opacity="0.09" stroke="#363636" stroke-dasharray="2 2"/>
<rect x="392.5" y="981.5" width="63" height="63" stroke="#363636" stroke-dasharray="2 2"/>
<rect x="203.5" y="918.5" width="63" height="63" stroke="#363636" stroke-dasharray="2 2"/>
<rect x="266.5" y="918.5" width="63" height="63" stroke="#363636" stroke-dasharray="2 2"/>
<rect x="203.5" y="981.5" width="63" height="63" stroke="#363636" stroke-dasharray="2 2"/>
<rect x="266.5" y="981.5" width="63" height="63" stroke="#363636" stroke-dasharray="2 2"/>
<rect x="77.5" y="918.5" width="63" height="63" stroke="#363636" stroke-dasharray="2 2"/>
<rect x="140.5" y="918.5" width="63" height="63" stroke="#363636" stroke-dasharray="2 2"/>
<rect x="77.5" y="981.5" width="63" height="63" stroke="#363636" stroke-dasharray="2 2"/>
<rect x="140.5" y="981.5" width="63" height="63" stroke="#363636" stroke-dasharray="2 2"/>
<rect x="455.5" y="1044.5" width="63" height="63" stroke="#363636" stroke-dasharray="2 2"/>
<rect x="518.5" y="1044.5" width="63" height="63" stroke="#363636" stroke-dasharray="2 2"/>
<rect x="833.5" y="1044.5" width="63" height="63" stroke="#363636" stroke-dasharray="2 2"/>
<rect x="896.5" y="1044.5" width="63" height="63" stroke="#363636" stroke-dasharray="2 2"/>
<rect x="707.5" y="1044.5" width="63" height="63" stroke="#363636" stroke-dasharray="2 2"/>
<rect x="770.5" y="1044.5" width="63" height="63" stroke="#363636" stroke-dasharray="2 2"/>
<rect x="581.5" y="1044.5" width="63" height="63" stroke="#363636" stroke-dasharray="2 2"/>
<rect x="644.5" y="1044.5" width="63" height="63" stroke="#363636" stroke-dasharray="2 2"/>
<rect x="455.5" y="918.5" width="63" height="63" stroke="#363636" stroke-dasharray="2 2"/>
<rect x="518.5" y="918.5" width="63" height="63" stroke="#363636" stroke-dasharray="2 2"/>
<rect x="455.5" y="981.5" width="63" height="63" stroke="#363636" stroke-dasharray="2 2"/>
<rect x="518.5" y="981.5" width="63" height="63" stroke="#363636" stroke-dasharray="2 2"/>
<rect x="833.5" y="918.5" width="63" height="63" fill="#92A7B1" fill-opacity="0.09" stroke="#363636" stroke-dasharray="2 2"/>
<rect x="896.5" y="918.5" width="63" height="63" stroke="#363636" stroke-dasharray="2 2"/>
<rect x="833.5" y="981.5" width="63" height="63" stroke="#363636" stroke-dasharray="2 2"/>
<rect x="896.5" y="981.5" width="63" height="63" stroke="#363636" stroke-dasharray="2 2"/>
<rect x="707.5" y="918.5" width="63" height="63" stroke="#363636" stroke-dasharray="2 2"/>
<rect x="770.5" y="918.5" width="63" height="63" stroke="#363636" stroke-dasharray="2 2"/>
<rect x="707.5" y="981.5" width="63" height="63" stroke="#363636" stroke-dasharray="2 2"/>
<rect x="770.5" y="981.5" width="63" height="63" stroke="#363636" stroke-dasharray="2 2"/>
<rect x="581.5" y="918.5" width="63" height="63" stroke="#363636" stroke-dasharray="2 2"/>
<rect x="644.5" y="918.5" width="63" height="63" fill="#92A7B1" fill-opacity="0.09" stroke="#363636" stroke-dasharray="2 2"/>
<rect x="581.5" y="981.5" width="63" height="63" stroke="#363636" stroke-dasharray="2 2"/>
<rect x="644.5" y="981.5" width="63" height="63" fill="#92A7B1" fill-opacity="0.09" stroke="#363636" stroke-dasharray="2 2"/>
<rect x="959.5" y="1044.5" width="63" height="63" stroke="#363636" stroke-dasharray="2 2"/>
<rect x="1022.5" y="1044.5" width="63" height="63" stroke="#363636" stroke-dasharray="2 2"/>
<rect x="1337.5" y="1044.5" width="63" height="63" stroke="#363636" stroke-dasharray="2 2"/>
<rect x="1211.5" y="1044.5" width="63" height="63" stroke="#363636" stroke-dasharray="2 2"/>
<rect x="1274.5" y="1044.5" width="63" height="63" stroke="#363636" stroke-dasharray="2 2"/>
<rect x="1085.5" y="1044.5" width="63" height="63" stroke="#363636" stroke-dasharray="2 2"/>
<rect x="1148.5" y="1044.5" width="63" height="63" fill="#92A7B1" fill-opacity="0.09" stroke="#363636" stroke-dasharray="2 2"/>
<rect x="959.5" y="918.5" width="63" height="63" stroke="#363636" stroke-dasharray="2 2"/>
<rect x="1022.5" y="918.5" width="63" height="63" stroke="#363636" stroke-dasharray="2 2"/>
<rect x="959.5" y="981.5" width="63" height="63" stroke="#363636" stroke-dasharray="2 2"/>
<rect x="1022.5" y="981.5" width="63" height="63" stroke="#363636" stroke-dasharray="2 2"/>
<rect x="1337.5" y="918.5" width="63" height="63" stroke="#363636" stroke-dasharray="2 2"/>
<rect x="1337.5" y="981.5" width="63" height="63" stroke="#363636" stroke-dasharray="2 2"/>
<rect x="1211.5" y="918.5" width="63" height="63" stroke="#363636" stroke-dasharray="2 2"/>
<rect x="1274.5" y="918.5" width="63" height="63" stroke="#363636" stroke-dasharray="2 2"/>
<rect x="1211.5" y="981.5" width="63" height="63" stroke="#363636" stroke-dasharray="2 2"/>
<rect x="1274.5" y="981.5" width="63" height="63" stroke="#363636" stroke-dasharray="2 2"/>
<rect x="1085.5" y="918.5" width="63" height="63" stroke="#363636" stroke-dasharray="2 2"/>
<rect x="1148.5" y="918.5" width="63" height="63" stroke="#363636" stroke-dasharray="2 2"/>
<rect x="1085.5" y="981.5" width="63" height="63" stroke="#363636" stroke-dasharray="2 2"/>
<rect x="1148.5" y="981.5" width="63" height="63" stroke="#363636" stroke-dasharray="2 2"/>
<line x1="1337.5" y1="776" x2="1337.5" y2="808" stroke="#4C4C4C"/>
<line x1="1321" y1="792.5" x2="1353" y2="792.5" stroke="#4C4C4C"/>
<line x1="77.5" y1="1028" x2="77.5" y2="1060" stroke="#4C4C4C"/>
<line x1="61" y1="1044.5" x2="93" y2="1044.5" stroke="#4C4C4C"/>
<line x1="329.5" y1="1028" x2="329.5" y2="1060" stroke="#4C4C4C"/>
<line x1="313" y1="1044.5" x2="345" y2="1044.5" stroke="#4C4C4C"/>
<line x1="581.5" y1="1028" x2="581.5" y2="1060" stroke="#4C4C4C"/>
<line x1="565" y1="1044.5" x2="597" y2="1044.5" stroke="#4C4C4C"/>
<line x1="833.5" y1="1028" x2="833.5" y2="1060" stroke="#4C4C4C"/>
<line x1="817" y1="1044.5" x2="849" y2="1044.5" stroke="#4C4C4C"/>
<line x1="1085.5" y1="1028" x2="1085.5" y2="1060" stroke="#4C4C4C"/>
<line x1="1069" y1="1044.5" x2="1101" y2="1044.5" stroke="#4C4C4C"/>
<line x1="1337.5" y1="1028" x2="1337.5" y2="1060" stroke="#4C4C4C"/>
<line x1="1321" y1="1044.5" x2="1353" y2="1044.5" stroke="#4C4C4C"/>
</svg>
